<svg width="500" height="500" viewBox="0 0 800 800" xmlns="http://www.w3.org/2000/svg" xml:space="preserve" style="fill-rule:evenodd;clip-rule:evenodd;stroke-linejoin:round;stroke-miterlimit:2"><path d="M636.881 432.188h-9.086v-51.841c0-122.299-99.496-221.796-221.795-221.796s-221.795 99.497-221.795 221.796v51.841h-9.086c-13.851 0-25.119 11.268-25.119 25.119v102.614c0 13.851 11.268 25.119 25.119 25.119h10.405c3.354 9.93 12.752 17.102 23.8 17.102h17.102c13.851 0 25.119-11.268 25.119-25.119V440.205c0-13.851-11.268-25.119-25.119-25.119h-17.102c-3.203 0-6.266.609-9.086 1.707v-36.446c0-113.458 92.304-205.762 205.762-205.762s205.762 92.304 205.762 205.762v36.446a25 25 0 0 0-9.086-1.707h-17.102c-13.851 0-25.119 11.268-25.119 25.119v136.818c0 13.851 11.268 25.119 25.119 25.119h17.102c11.048 0 20.446-7.172 23.8-17.102h10.405c13.851 0 25.119-11.268 25.119-25.119V457.307c0-13.851-11.268-25.119-25.119-25.119M184.205 569.006h-9.086c-5.01 0-9.086-4.076-9.086-9.086V457.307c0-5.011 4.076-9.086 9.086-9.086h9.086zm25.119-137.887h17.102c5.01 0 9.086 4.076 9.086 9.086v136.818c0 5.01-4.076 9.086-9.086 9.086h-17.102c-5.01 0-9.086-4.076-9.086-9.086V440.205c0-5.01 4.076-9.086 9.086-9.086m402.438 145.904c0 5.01-4.076 9.086-9.086 9.086h-17.102c-5.01 0-9.086-4.076-9.086-9.086V440.205c0-5.011 4.076-9.086 9.086-9.086h17.102c5.01 0 9.086 4.076 9.086 9.086zm34.205-17.102c0 5.01-4.076 9.086-9.086 9.086h-9.086V448.221h9.086c5.01 0 9.086 4.076 9.086 9.086z"/><path d="M500.063 363.779h-11.165c-2.829-5.093-8.26-8.551-14.489-8.551h-34.205c-6.228 0-11.659 3.458-14.489 8.551H311.937c-13.851 0-25.119 11.268-25.119 25.119V628.33c0 13.851 11.268 25.119 25.119 25.119h188.125c13.851 0 25.119-11.268 25.119-25.119V388.898c.001-13.851-11.268-25.119-25.118-25.119m-60.393 8.016c0-.294.239-.534.534-.534h34.205c.295 0 .534.24.534.534v53.43l-13.19-8.794a8.01 8.01 0 0 0-8.894 0l-13.19 8.794zm69.479 256.535c0 5.01-4.076 9.086-9.086 9.086H311.937c-5.01 0-9.086-4.076-9.086-9.086V388.898c0-5.01 4.076-9.086 9.086-9.086h111.699v60.392a8.014 8.014 0 0 0 12.463 6.67l21.207-14.138 21.207 14.138a8.01 8.01 0 0 0 8.231.398 8.02 8.02 0 0 0 4.234-7.068v-60.392h9.086c5.01 0 9.086 4.076 9.086 9.086z"/><path d="M329.04 397.983a8.017 8.017 0 0 0-8.017 8.017v205.228a8.017 8.017 0 0 0 16.034 0V406a8.02 8.02 0 0 0-8.017-8.017m119.716 85.512h-51.307a8.017 8.017 0 0 0 0 16.034h51.307a8.017 8.017 0 0 0 0-16.034m17.102 34.204h-85.511a8.017 8.017 0 0 0 0 16.034h85.511a8.017 8.017 0 0 0 0-16.034"/></svg>